 <svg  version="1.0" xmlns="http://www.w3.org/2000/svg"  width="300.000000pt" height="85.000000pt" viewBox="0 0 300.000000 85.000000"  preserveAspectRatio="xMidYMid meet">  <g transform="translate(0.000000,85.000000) scale(0.100000,-0.100000)" stroke="none"> <path d="M1715 835 c-92 -32 -137 -145 -103 -258 37 -122 194 -163 293 -76 39 35 57 82 57 149 0 66 -17 111 -55 147 -55 52 -118 64 -192 38z m135 -90 c31 -33 39 -118 16 -163 -20 -38 -44 -52 -89 -52 -54 0 -87 45 -87 116 0 88 27 123 96 124 31 0 46 -6 64 -25z"/> <path d="M250 726 c-206 -95 -244 -116 -242 -132 4 -18 107 -411 117 -444 4 -11 16 -14 51 -11 l47 3 -6 58 c-17 161 -20 247 -7 255 19 12 25 -6 50 -153 12 -75 25 -140 29 -143 3 -4 41 -2 84 3 l77 10 -5 32 c-2 17 -10 91 -16 165 -9 108 -8 135 2 142 7 4 16 6 19 4 4 -2 20 -79 35 -170 l29 -166 35 5 c20 3 58 8 84 12 37 5 47 10 43 23 -2 9 -10 90 -17 179 -10 139 -10 165 2 172 7 5 15 7 18 5 2 -3 18 -85 36 -182 l31 -178 50 2 c27 2 64 5 82 8 l32 6 0 258 0 259 -188 46 c-104 25 -198 46 -208 46 -10 -1 -129 -52 -264 -114z"/> <path d="M1100 650 l0 -190 40 0 40 0 0 65 0 65 49 0 49 0 22 -65 22 -65 45 0 c31 0 43 4 41 13 -2 6 -12 38 -22 70 -19 54 -21 57 -53 57 -18 0 -33 5 -33 10 0 6 7 10 16 10 8 0 29 13 45 29 48 49 37 134 -23 171 -27 16 -51 20 -135 20 l-103 0 0 -190z m192 100 c24 -29 23 -36 -7 -66 -20 -20 -34 -25 -63 -22 -36 3 -37 4 -40 47 -5 66 1 75 51 68 26 -4 48 -14 59 -27z"/> <path d="M1460 650 l0 -190 45 0 45 0 0 190 0 190 -45 0 -45 0 0 -190z"/> <path d="M1980 806 l0 -34 70 0 c79 0 96 -6 56 -21 l-26 -11 0 -140 0 -140 40 0 40 0 0 155 c0 171 -6 157 68 157 30 1 32 3 32 34 l0 34 -140 0 -140 0 0 -34z"/> <path d="M1203 389 c-69 -20 -123 -104 -123 -189 0 -133 108 -221 233 -189 78 19 117 71 117 155 l0 44 -80 0 -80 0 0 -30 c0 -28 2 -30 40 -30 46 0 53 -17 20 -50 -14 -14 -33 -20 -64 -20 -37 0 -48 5 -70 31 -22 25 -26 41 -26 89 0 48 4 64 26 89 21 26 33 31 69 31 35 0 48 -5 63 -25 15 -19 29 -25 61 -25 23 0 41 4 41 9 0 18 -47 76 -76 93 -38 22 -109 30 -151 17z"/> <path d="M2783 389 c-75 -22 -111 -126 -59 -172 14 -12 60 -33 103 -47 63 -20 79 -29 81 -47 8 -55 -106 -70 -130 -17 -9 19 -19 24 -50 24 -43 0 -48 -12 -23 -60 22 -43 69 -64 140 -64 76 0 121 23 142 71 17 42 11 78 -19 110 -21 22 -43 32 -125 53 -54 14 -71 42 -43 70 27 27 66 25 96 -5 32 -32 94 -36 94 -6 0 30 -48 79 -88 91 -44 12 -75 12 -119 -1z"/> <path d="M1570 386 c0 -2 -29 -88 -65 -191 l-65 -186 48 3 c45 3 47 4 56 41 l10 37 76 0 76 0 10 -37 c9 -37 11 -38 56 -41 l48 -3 -49 138 c-26 76 -56 162 -65 191 l-18 52 -59 0 c-32 0 -59 -2 -59 -4z m91 -151 c10 -33 19 -63 19 -67 0 -5 -22 -8 -50 -8 -27 0 -50 4 -50 8 0 5 7 31 16 58 9 27 18 55 20 62 8 27 27 5 45 -53z"/> <path d="M1870 200 l0 -190 40 0 40 0 0 145 c0 80 3 145 8 145 4 0 26 -64 48 -142 l41 -143 44 -3 44 -3 39 133 c21 73 42 140 47 148 5 9 9 -46 9 -132 l0 -148 45 0 45 0 0 190 0 190 -74 0 -75 0 -15 -52 c-8 -29 -25 -88 -37 -131 -12 -43 -26 -74 -30 -70 -4 4 -23 62 -42 128 l-34 120 -72 3 -71 3 0 -191z"/> <path d="M2380 200 l0 -190 136 0 135 0 -3 33 -3 32 -87 3 -88 3 0 44 0 45 70 0 70 0 0 30 0 30 -70 0 -70 0 0 45 c0 50 -7 47 105 49 l70 2 3 32 3 32 -135 0 -136 0 0 -190z"/> <path d="M693 137 c-158 -20 -163 -22 -163 -44 0 -13 3 -23 8 -23 4 0 86 -14 182 -30 96 -16 178 -30 183 -30 4 0 7 34 7 75 l0 75 -27 -1 c-16 -1 -101 -11 -190 -22z"/> </g> </svg> 